<svg width="50" height="36" viewBox="0 0 50 36" fill="none" xmlns="http://www.w3.org/2000/svg">
<path d="M36.6288 0C26.9957 0 19.1865 7.80899 19.1865 17.4419C19.1865 27.0747 26.9957 34.8837 36.6288 34.8837V0Z" fill="black"/>
<path d="M17.4423 2.82776e-06C7.80917 2.82776e-06 0 7.80899 0 17.4419C0 27.0747 7.80917 34.8837 17.4423 34.8837V2.82776e-06Z" fill="black"/>
<path d="M38.373 5.81395C38.373 2.60332 40.9758 0 44.1865 0C47.3972 0 50 2.60332 50 5.81395C50 9.02459 47.3972 11.6279 44.1865 11.6279C40.9758 11.6279 38.373 9.02459 38.373 5.81395Z" fill="black"/>
<path d="M44.1865 23.4884C40.9758 23.4884 38.373 26.0917 38.373 29.3023C38.373 32.513 40.9758 35.1163 44.1865 35.1163C47.3972 35.1163 50 32.513 50 29.3023C50 26.0917 47.3972 23.4884 44.1865 23.4884Z" fill="black"/>
</svg>
